<?xml version="1.0" encoding="UTF-8" standalone="no"?>
<svg
   xmlns:dc="http://purl.org/dc/elements/1.1/"
   xmlns:cc="http://creativecommons.org/ns#"
   xmlns:rdf="http://www.w3.org/1999/02/22-rdf-syntax-ns#"
   xmlns:svg="http://www.w3.org/2000/svg"
   xmlns="http://www.w3.org/2000/svg"
   xmlns:sodipodi="http://sodipodi.sourceforge.net/DTD/sodipodi-0.dtd"
   xmlns:inkscape="http://www.inkscape.org/namespaces/inkscape"
   id="Capa_1"
   enable-background="new 0 0 512 512"
   height="512"
   viewBox="0 0 512 512"
   width="512"
   version="1.1"
   sodipodi:docname="bubble.svg"
   inkscape:version="0.92.4 (5da689c313, 2019-01-14)">
  <metadata
     id="metadata17">
    <rdf:RDF>
      <cc:Work
         rdf:about="">
        <dc:format>image/svg+xml</dc:format>
        <dc:type
           rdf:resource="http://purl.org/dc/dcmitype/StillImage" />
      </cc:Work>
    </rdf:RDF>
  </metadata>
  <defs
     id="defs15" />
  <sodipodi:namedview
     pagecolor="#ffffff"
     bordercolor="#666666"
     borderopacity="1"
     objecttolerance="10"
     gridtolerance="10"
     guidetolerance="10"
     inkscape:pageopacity="0"
     inkscape:pageshadow="2"
     inkscape:window-width="640"
     inkscape:window-height="480"
     id="namedview13"
     showgrid="false"
     inkscape:zoom="0.4609375"
     inkscape:cx="-1.2616929"
     inkscape:cy="256"
     inkscape:window-x="70"
     inkscape:window-y="27"
     inkscape:window-maximized="0"
     inkscape:current-layer="Capa_1" />
  <g
     id="g10"
     transform="matrix(-0.9989971,0,0,1,510.65951,2.1694915)">
    <g
       id="g4">
      <path
         d="m 256,490.52 c 0,15.41 15.956,25.793 30.287,19.719 132.236,-56.046 222.863,-158.496 224.197,-292.595 0.016,-0.992 0.016,-1.997 0.016,-3.002 0,-1.005 0,-2.011 -0.016,-3.002 v 6.005 c 0.016,-0.992 0.016,-1.997 0.016,-3.002 0,-1.005 0,-2.011 -0.016,-3.002 C 508.567,94.483 395.363,0 256,0 115.445,0 1.5,96.099 1.5,214.641 1.5,333.183 115.445,429.282 256,429.282 Z"
         id="path2"
         inkscape:connector-curvature="0"
         style="fill:#0ed2b3" />
    </g>
    <g
       id="g8">
      <path
         d="m 494.566,139.745 c -56.342,149.784 -200.946,256.36 -370.452,256.36 -1.377,0 -2.751,-0.012 -4.124,-0.026 39.345,21.023 85.989,33.204 136.011,33.204 v 61.237 c 0,15.41 15.956,25.793 30.287,19.719 132.236,-56.046 222.863,-158.497 224.197,-292.596 0.016,-0.992 0.016,-1.997 0.016,-3.002 0,-1.005 0,-2.011 -0.016,-3.002 -0.414,-25.26 -6.012,-49.462 -15.919,-71.894 z"
         id="path6"
         inkscape:connector-curvature="0"
         style="fill:#0ab69f" />
    </g>
  </g>
</svg>
