<svg id="Capa_1" enable-background="new 0 0 512 512" height="512" viewBox="0 0 512 512" width="512" xmlns="http://www.w3.org/2000/svg"><g><g><path d="m256 490.52c0 15.41 15.956 25.793 30.287 19.719 132.236-56.046 222.863-158.496 224.197-292.595.016-.992.016-1.997.016-3.002s0-2.011-.016-3.002v6.005c.016-.992.016-1.997.016-3.002s0-2.011-.016-3.002c-1.917-117.158-115.121-211.641-254.484-211.641-140.555 0-254.5 96.099-254.5 214.641s113.945 214.641 254.5 214.641z" fill="#0ed2b3"/></g><g><path d="m494.566 139.745c-56.342 149.784-200.946 256.36-370.452 256.36-1.377 0-2.751-.012-4.124-.026 39.345 21.023 85.989 33.204 136.011 33.204v61.237c0 15.41 15.956 25.793 30.287 19.719 132.236-56.046 222.863-158.497 224.197-292.596.016-.992.016-1.997.016-3.002s0-2.011-.016-3.002c-.414-25.26-6.012-49.462-15.919-71.894z" fill="#0ab69f"/></g></g></svg>