<?xml version="1.0" encoding="UTF-8" standalone="no"?>
<svg
   xmlns:dc="http://purl.org/dc/elements/1.1/"
   xmlns:cc="http://creativecommons.org/ns#"
   xmlns:rdf="http://www.w3.org/1999/02/22-rdf-syntax-ns#"
   xmlns:svg="http://www.w3.org/2000/svg"
   xmlns="http://www.w3.org/2000/svg"
   xmlns:sodipodi="http://sodipodi.sourceforge.net/DTD/sodipodi-0.dtd"
   xmlns:inkscape="http://www.inkscape.org/namespaces/inkscape"
   height="363pt"
   viewBox="0 0 363.35601 363"
   width="363pt"
   version="1.1"
   id="svg8"
   sodipodi:docname="edit.svg"
   inkscape:version="0.92.4 (5da689c313, 2019-01-14)">
  <metadata
     id="metadata14">
    <rdf:RDF>
      <cc:Work
         rdf:about="">
        <dc:format>image/svg+xml</dc:format>
        <dc:type
           rdf:resource="http://purl.org/dc/dcmitype/StillImage" />
      </cc:Work>
    </rdf:RDF>
  </metadata>
  <defs
     id="defs12" />
  <sodipodi:namedview
     pagecolor="#ffffff"
     bordercolor="#666666"
     borderopacity="1"
     objecttolerance="10"
     gridtolerance="10"
     guidetolerance="10"
     inkscape:pageopacity="0"
     inkscape:pageshadow="2"
     inkscape:window-width="777"
     inkscape:window-height="480"
     id="namedview10"
     showgrid="false"
     inkscape:zoom="0.48760331"
     inkscape:cx="242"
     inkscape:cy="242"
     inkscape:window-x="935"
     inkscape:window-y="134"
     inkscape:window-maximized="0"
     inkscape:current-layer="svg8" />
  <path
     d="m61.929688 278.003906 206.101562-206.101562c15.640625-15.597656 40.957031-15.597656 56.601562 0l24.199219 24.199218c8.21875-15.507812 5.382813-34.558593-7-47l-27.199219-27.199218c-15.644531-15.597656-40.960937-15.597656-56.601562 0l-206.101562 206.101562-41.898438 125.597656 30-10zm0 0"
     fill="#d4e1f4"
     id="path2" />
  <path
     d="m247.332031 32.601562c-3.894531-3.890624-10.207031-3.890624-14.101562 0-3.894531 3.894532-3.894531 10.207032 0 14.101563l83.699219 83.699219c1.878906 1.890625 4.441406 2.9375 7.101562 2.902344 2.652344-.011719 5.199219-1.050782 7.101562-2.902344 1.871094-1.867188 2.921876-4.40625 2.921876-7.050782 0-2.644531-1.050782-5.179687-2.921876-7.046874zm0 0"
     fill="#1ae5be"
     id="path4" />
  <path
     d="m321.632812 14.804688c-19.535156-19.5-51.167968-19.5-70.703124 0l-206.5 206.5c-.097657.097656-.097657.199218-.199219.199218-.199219.300782-.5.597656-.699219.898438 0 .101562-.101562.101562-.101562.199218-.199219.300782-.296876.5-.5.800782-.097657.101562-.097657.199218-.199219.300781-.097657.300781-.199219.5-.300781.800781 0 .097656-.097657.097656-.097657.199219l-41.800781 125.699219c-1.226562 3.578125-.292969 7.542968 2.398438 10.199218 1.894531 1.867188 4.445312 2.910157 7.101562 2.902344 1.085938-.019531 2.160156-.1875 3.199219-.5l125.601562-41.902344c.097657 0 .097657 0 .199219-.097656.316406-.09375.621094-.226562.898438-.402344.078124-.007812.148437-.042968.203124-.097656.296876-.199218.699219-.402344 1-.601562.296876-.199219.597657-.5.898438-.699219.101562-.101563.199219-.101563.199219-.199219.101562-.101562.300781-.199218.402343-.402344l206.097657-206.097656c19.5-19.535156 19.5-51.167968 0-70.699218zm-295.800781 323 30.398438-91.300782 60.800781 60.800782zm308.800781-239.300782-199 199.097656-69.601562-69.597656 199.101562-199.101562c11.710938-11.699219 30.6875-11.699219 42.398438 0l27.199219 27.199218c11.621093 11.761719 11.578125 30.695313-.097657 42.402344zm0 0"
     fill="#0635c9"
     id="path6"
     style="fill:#06a793;fill-opacity:1" />
</svg>
